Coordinates
version=1
nRows=9
nColumns=42
inDegrees=yes

Units are S.I. units (second, meters, Newtons, ...)
If the header above contains a line with 'inDegrees', this indicates whether rotational values are in degrees (yes) or radians (no).

endheader
time	pelvis_tilt	pelvis_list	pelvis_rotation	pelvis_tx	pelvis_ty	pelvis_tz	hip_flexion_r	hip_adduction_r	hip_rotation_r	knee_angle_r	knee_angle_r_beta	ankle_angle_r	subtalar_angle_r	mtp_angle_r	hip_flexion_l	hip_adduction_l	hip_rotation_l	knee_angle_l	knee_angle_l_beta	ankle_angle_l	subtalar_angle_l	mtp_angle_l	lumbar_extension	lumbar_bending	lumbar_rotation	sh_tx_r	sh_ty_r	sh_tz_r	sh_plane_elev_r	sh_elev_r	sh_axial_rot_r	elbow_flex_r	pro_sup_r	sh_tx_l	sh_ty_l	sh_tz_l	sh_plane_elev_l	sh_elev_l	sh_axial_rot_l	elbow_flex_l	pro_sup_l
      8.31666670	     -6.38758027	     -0.32779662	     -0.60089965	      0.28414820	      0.93420366	     -0.03912733	      2.51010226	     -5.71801546	     -7.04431212	      1.98733812	      0.03468559	      3.34989080	     -2.76823324	     -7.49999987	      4.18732779	     -3.85845076	    -12.64672108	      0.80198563	      0.01399729	      5.29283656	     -1.85174058	     -7.49999987	      1.73037543	      6.61624876	      3.52755689	     -0.01058826	     -0.01314731	     -0.00583771	     -1.39405196	      7.10076948	      3.36335242	     30.00465518	     89.52825301	     -0.02194832	      0.03080907	     -0.00500950	      5.75297820	     65.47020971	      2.07043435	     94.40333306	     81.32719534
      8.33333330	     -6.64985123	     -0.33666496	     -0.72217210	      0.28365783	      0.93371130	     -0.03934815	      3.19881756	     -5.74323752	     -7.10738192	      2.60049969	      0.04538728	      3.70947970	     -2.35012783	     -7.49999987	      4.80439807	     -3.96465370	    -12.85143575	      1.39859728	      0.02441013	      5.37282879	     -1.86996964	     -7.49999987	      1.83999164	      6.87092900	      3.76080889	     -0.01020127	     -0.01048809	     -0.00556809	     -0.64567117	      7.54272280	      4.67810104	     29.54980050	     87.81147904	     -0.01984014	      0.03028486	     -0.00480029	      5.54103778	     64.27650182	      2.98487913	     95.15588937	     80.47063322
      8.35000000	     -6.44813710	     -0.25720063	     -0.75141974	      0.28433372	      0.93710021	     -0.03929139	      2.70381029	     -5.76188498	     -6.85032980	      2.05593071	      0.03588276	      3.36314811	     -2.68800777	     -7.49999987	      4.33169094	     -3.84592261	    -12.81932140	      0.87560980	      0.01528227	      5.09291369	     -1.81644480	     -7.49999987	      1.39940145	      6.64782931	      3.36884508	     -0.00979224	     -0.01375630	     -0.00582587	     -1.68906221	      7.17647878	      3.68533959	     29.92509453	     87.61445855	     -0.02296976	      0.03106926	     -0.00478190	      5.09970317	     64.03049517	      5.04565505	     95.97530973	     81.13566065
      8.36666670	     -6.45642654	     -0.21136051	     -0.80051203	      0.28826843	      0.93692290	     -0.04401272	      2.68724897	     -5.88342199	     -6.88683495	      2.08279764	      0.03635168	      3.16175263	     -2.61625499	     -7.49999987	      4.32189600	     -3.75331911	    -12.90561652	      0.89856694	      0.01568295	      4.93561436	     -1.78613591	     -7.49999987	      1.19810459	      6.80642589	      3.42169138	     -0.01096647	     -0.01363110	     -0.00578680	     -2.66158048	      7.24968635	      4.07812396	     29.66080052	     89.45723233	     -0.02337430	      0.03117672	     -0.00476017	      4.27788074	     63.36252578	      5.84151386	     97.06468691	     84.20856599
      8.38333330	     -6.60083483	     -0.18166277	     -0.87822633	      0.28766636	      0.93624240	     -0.04401335	      3.10684400	     -6.04439690	     -7.03314123	      2.63534235	      0.04599540	      3.25865388	     -2.49743624	     -7.49999987	      4.73429830	     -3.71224480	    -12.95511019	      1.48538241	      0.02592481	      5.11670000	     -1.96089960	     -7.49999987	      1.39598489	      7.19798460	      3.35913729	     -0.01000350	     -0.01025343	     -0.00553341	     -3.02590467	      7.63651813	      5.51302923	     29.52533689	     87.46933970	     -0.02086877	      0.02979958	     -0.00486920	      2.74646490	     63.06308949	      7.37070229	     97.97396870	     83.16109371
      8.40000000	     -6.43795002	     -0.13580925	     -0.92001183	      0.28440259	      0.93296694	     -0.03888962	      2.66584330	     -6.02314576	     -6.91674584	      2.08923476	      0.03646403	      3.01514178	     -2.43025888	     -7.49999987	      4.24601803	     -3.59565356	    -13.01176390	      0.92620557	      0.01616534	      4.91109589	     -1.85282659	     -7.49999987	      0.90170252	      6.94266640	      3.33588169	     -0.01124053	     -0.01304055	     -0.00592278	     -3.18572269	      7.21985874	      5.19452742	     29.97756136	     85.54728976	     -0.02404710	      0.03178563	     -0.00491213	      1.48433854	     62.92630126	      7.81600942	     97.66626129	     81.52305795
      8.41666670	     -6.47858536	     -0.11886497	     -0.93803503	      0.28438478	      0.93269292	     -0.03870102	      2.74601279	     -6.00713503	     -6.85919391	      2.08731470	      0.03643051	      2.99630826	     -2.41616667	     -7.49999987	      4.30421622	     -3.59810784	    -13.02331782	      0.94703994	      0.01652897	      4.92840121	     -1.75241610	     -7.49999987	      0.83415291	      6.88283009	      3.55425863	     -0.01258976	     -0.01274678	     -0.00589091	     -2.29805990	      7.06423184	      3.87544606	     29.68778001	     88.28115315	     -0.02419109	      0.03248449	     -0.00495138	      1.19644705	     62.63040059	      8.82299688	     96.36353689	     82.63836866
      8.43333330	     -6.56930396	     -0.13329227	     -0.95918855	      0.28455996	      0.92957440	     -0.03886312	      2.88937785	     -5.95456538	     -6.92847792	      2.11004875	      0.03682730	      3.10615957	     -2.29394564	     -7.49999987	      4.41362036	     -3.64607390	    -12.98669326	      0.97977660	      0.01710033	      4.97228719	     -1.97620759	     -7.49999987	      1.00058355	      6.84602136	      3.51781501	     -0.01190119	     -0.01200048	     -0.00597778	     -1.81015349	      6.98356694	      4.46815617	     29.37722903	     87.06213139	     -0.02359772	      0.03286474	     -0.00510982	      0.12316575	     62.91332272	      9.39914175	     95.64440992	     81.86485405
      8.45000000	     -6.68509915	     -0.14375889	     -0.99770761	      0.28460292	      0.92946806	     -0.03869968	      3.05764728	     -5.89449817	     -6.72450379	      2.11563237	      0.03692475	      3.10656491	     -2.40755638	     -7.49999987	      4.57641959	     -3.71104257	    -13.17007797	      1.06818507	      0.01864335	      5.13355330	     -1.80753519	     -7.49999987	      1.12043676	      6.81819354	      3.39854367	     -0.01136852	     -0.01181324	     -0.00591678	     -1.84852604	      6.77660313	      4.47236074	     29.29071630	     84.95168977	     -0.02350334	      0.03328111	     -0.00507910	     -0.68950159	     62.86339802	     10.13979403	     94.56678424	     80.17464778
